<svg width="104" height="28" viewBox="0 0 104 28" fill="none" xmlns="http://www.w3.org/2000/svg">
<path d="M26.0511 13.9091C26.0511 16.8239 25.4844 19.2827 24.3509 21.2855C23.2173 23.2798 21.6875 24.7926 19.7614 25.8239C17.8352 26.8466 15.6875 27.358 13.3182 27.358C10.9318 27.358 8.77557 26.8423 6.84943 25.8111C4.93182 24.7713 3.40625 23.2543 2.27273 21.2599C1.14773 19.2571 0.585227 16.8068 0.585227 13.9091C0.585227 10.9943 1.14773 8.53977 2.27273 6.54545C3.40625 4.54261 4.93182 3.02983 6.84943 2.0071C8.77557 0.975851 10.9318 0.460226 13.3182 0.460226C15.6875 0.460226 17.8352 0.975851 19.7614 2.0071C21.6875 3.02983 23.2173 4.54261 24.3509 6.54545C25.4844 8.53977 26.0511 10.9943 26.0511 13.9091ZM18.7386 13.9091C18.7386 12.3409 18.5298 11.0199 18.1122 9.94602C17.7031 8.86364 17.0938 8.04545 16.2841 7.49148C15.483 6.92898 14.4943 6.64773 13.3182 6.64773C12.142 6.64773 11.1491 6.92898 10.3395 7.49148C9.53835 8.04545 8.92898 8.86364 8.51136 9.94602C8.10227 11.0199 7.89773 12.3409 7.89773 13.9091C7.89773 15.4773 8.10227 16.8026 8.51136 17.8849C8.92898 18.9588 9.53835 19.777 10.3395 20.3395C11.1491 20.8935 12.142 21.1705 13.3182 21.1705C14.4943 21.1705 15.483 20.8935 16.2841 20.3395C17.0938 19.777 17.7031 18.9588 18.1122 17.8849C18.5298 16.8026 18.7386 15.4773 18.7386 13.9091ZM45.4734 27L37.445 16.4148H36.4478V27H29.3398V0.818181H36.4478V10.6875H37.3683L44.8853 0.818181H53.8342L43.8626 13.3977L54.3967 27H45.4734ZM75.0558 11.4034V16.9261H63.4478V11.4034H75.0558ZM54.6012 18.1534H61.6069C61.5728 19.4318 61.935 20.3736 62.6935 20.9787C63.4606 21.5838 64.5131 21.8864 65.8512 21.8864C67.0955 21.8864 68.0415 21.6435 68.6893 21.1577C69.3455 20.6634 69.793 19.892 70.0316 18.8438C70.2788 17.7869 70.4023 16.4148 70.4023 14.7273V13.142C70.4023 11.4886 70.2617 10.1378 69.9805 9.08949C69.6992 8.04119 69.239 7.26989 68.5998 6.77557C67.9606 6.28125 67.0955 6.03409 66.0046 6.03409C64.8114 6.03409 63.8952 6.19176 63.256 6.5071C62.6168 6.82244 62.1779 7.27415 61.9393 7.86222C61.7006 8.45028 61.5728 9.15341 61.5558 9.97159H54.5501C54.7205 8.21591 55.2447 6.6179 56.1225 5.17756C57.0004 3.73722 58.2575 2.59091 59.8938 1.73864C61.5302 0.886363 63.5671 0.460226 66.0046 0.460226C68.2887 0.460226 70.2745 0.975851 71.962 2.0071C73.658 3.02983 74.9705 4.49574 75.8995 6.40483C76.837 8.3054 77.3058 10.5682 77.3058 13.1932V14.7273C77.3058 17.3523 76.854 19.6108 75.9506 21.5028C75.0472 23.3864 73.7433 24.8352 72.0387 25.8494C70.3342 26.8551 68.2717 27.358 65.8512 27.358C63.6523 27.358 61.7219 26.983 60.06 26.233C58.4066 25.4744 57.1026 24.4091 56.1481 23.0369C55.2021 21.6562 54.6864 20.0284 54.6012 18.1534ZM80.5625 0.818181H87.6705V14.5227H87.875L97.1818 0.818181H103.216V27H96.108V13.2443H95.9545L86.4943 27H80.5625V0.818181Z" fill="white"/>
</svg>
